<?xml version="1.0" encoding="utf-8"?>
<!-- Generator: Adobe Illustrator 16.0.0, SVG Export Plug-In . SVG Version: 6.00 Build 0)  -->
<!DOCTYPE svg PUBLIC "-//W3C//DTD SVG 1.1//EN" "http://www.w3.org/Graphics/SVG/1.1/DTD/svg11.dtd">
<svg version="1.1" xmlns="http://www.w3.org/2000/svg" xmlns:xlink="http://www.w3.org/1999/xlink" x="0px" y="0px" width="1400px"
	 height="980px" viewBox="0 0 1400 980" enable-background="new 0 0 1400 980" xml:space="preserve">
<g id="BACKGROUND">
	<rect x="-5" y="-8" fill="#FFFBE9" width="1414" height="997"/>
</g>
<g id="OBJECTS">
	<path opacity="0.2" fill="#51C6CD" d="M1177.58,847.55c0,0-779.03-5.359-792.69,0l-202.8-2.14c-6.24-41.8-7.03-140.62,21.52-222.88
		C224.1,563.5,259.7,512.99,319.25,498.22c142.52-35.36,143.59-286.11,381.48-351.479c237.89-65.37,324.69,126.45,376.13,225.03
		c1.3,2.5,2.64,4.94,4.01,7.34c52.57,92.42,150.81,116.48,170.649,262.7C1271.88,791.83,1177.58,847.55,1177.58,847.55z"/>
	<path opacity="0.2" fill="#51C6CD" d="M1177.58,847.55c0,0-779.03-5.359-792.69,0l-202.8-2.14c-6.24-41.8-7.03-140.62,21.52-222.88
		c43.87-43.311,101.92-84.62,162.9-83.29c126.98,2.77,348.24,30.43,413.51-23.351c47.19-38.88,172.61-152.27,300.851-136.78
		c52.57,92.42,150.81,116.48,170.649,262.7C1271.88,791.83,1177.58,847.55,1177.58,847.55z"/>
	<ellipse fill="#D8D4C0" cx="685.545" cy="848" rx="503.455" ry="21"/>
	<g>
		<path fill="#95A551" d="M306.5,661.5c0,0,8,138,94,188C400.5,849.5,391.5,729.5,306.5,661.5z"/>
		<path fill="#818C41" d="M264.5,736.5c0,0,116,25,136,113C400.5,849.5,271.5,793.5,264.5,736.5z"/>
		<path fill="#95A551" d="M252.5,791.5c0,0,103-3,148,58C400.5,849.5,281.5,851.5,252.5,791.5z"/>
		<path fill="#818C41" d="M427.5,670.5c0,0-94,96-27,179C400.5,849.5,437.5,716.5,427.5,670.5z"/>
		<path fill="#95A551" d="M486.5,706.5c0,0-101.363,49.149-94.182,131.575C392.318,838.075,485.5,782.5,486.5,706.5z"/>
		<path fill="#818C41" d="M517.5,772.5c0,0-106.092,14.164-125.546,73.082C391.954,845.582,473.5,873.5,517.5,772.5z"/>
	</g>
	<g>
		<g>
			<path opacity="0.5" fill="#FFFBE9" d="M684.554,580.921c7.002,4.061-0.221,25.277,6.484,31.63
				c5.514,5.225,16.011,3.609,19.862,10.158c1.775,3.021,1.406,6.812,0.697,10.244c-1.775,8.598-5.323,16.812-6.357,25.529
				c-1.035,8.718,1.105,18.63,8.323,23.626c10.141,7.021,26.727,2.244,34.077,12.148c5.094,6.866,3.089,18.173,10.13,23.021
				c2.372,1.634,5.353,2.137,7.841,3.587c5.284,3.08,7.27,9.627,8.554,15.605c3.298,15.355,19.313,57.146-4.577,63.978
				c-4.494,1.285-9.312,0.351-13.796-0.97c-26.487-7.8-47.148-28.083-66.633-47.647c-8.009-8.042-16.019-16.084-24.028-24.126
				c-6.125-6.15-12.529-12.798-14.319-21.292c-4.521-21.449,22.137-42.27,13.605-62.462c-1.76-4.166-5.014-8.258-4.009-12.667
				c0.583-2.562,2.536-4.599,3.418-7.073c1.139-3.196,0.385-6.706,0.117-10.09c-0.68-8.598,5.877-31.635,15.794-33.652
				C681.824,580.044,683.386,580.244,684.554,580.921z"/>
			<path fill="none" stroke="#51C6CD" stroke-width="2" stroke-linecap="round" stroke-linejoin="round" stroke-miterlimit="10" d="
				M681.796,617.364c-4.381,2.623-4.334,9.153-2.193,13.788c2.141,4.636,5.777,8.591,7.088,13.526
				c1.007,3.791,0.54,7.803-0.028,11.685c-1.368,9.356-3.283,18.779-2.353,28.188s5.273,19.069,13.526,23.685
				c3.829,2.142,8.44,3.207,11.321,6.515c1.993,2.288,2.846,5.318,3.818,8.193c6.051,17.893,19.021,33.346,35.593,42.407"/>
		</g>
		<g>
			<path fill="#FFFBE9" d="M996.807,521.868c-4.477,10.761-8.236,22.702-18.467,28.181c-7.513,4.021-17.111,3.386-23.969,8.442
				c-10.116,7.46-9.718,23.676-19.257,31.86c-8.927,7.66-22.985,5.365-32.98,11.567c-11.054,6.859-15.007,22.753-27.189,27.315
				c-9.929,3.718-21.374-1.789-31.515,1.304c-8.355,2.549-13.911,10.289-21.176,15.142c-12.61,8.423-30.034,7.91-41.561,17.764
				c-7.654,6.543-11.342,16.61-13.305,26.486c-3.192,16.059-2.118,34.198,8.456,46.697c8.312,9.825,21.013,14.557,33.13,18.894
				c36.945,13.226,98.041,20.659,118.497-24.933c5.579-12.433,6.544-27.478,16.125-37.168c8.644-8.743,22.492-11.018,30.515-20.335
				c14.743-17.123,1.31-45.916,13.171-65.148c6.893-11.175,21.031-16.645,26.974-28.353c5.945-11.71,1.925-25.697,1.181-38.809
				c-0.782-13.78,2.333-27.761,8.892-39.905C1007.66,499.376,1001.789,509.891,996.807,521.868z"/>
			<path fill="none" stroke="#51C6CD" stroke-width="2" stroke-linecap="round" stroke-linejoin="round" stroke-miterlimit="10" d="
				M990.257,561.923c-14.238,1.663-23.258,15.642-30.219,28.173c-8.687,15.639-17.372,31.277-26.059,46.915
				c-7.581,13.648-15.729,27.901-29.067,36.017c-6.727,4.093-14.379,6.354-21.606,9.477c-15.742,6.802-29.612,17.878-39.729,31.724"
				/>
		</g>
		<g>
			<path fill="#FFFBE9" d="M1050.294,695.518c-3.669,7.849-7.728,16.047-14.937,20.852c-13.471,8.979-32.181,2.771-47.253,8.68
				c-10.931,4.285-18.428,14.317-24.712,24.234c-1.766,2.787-3.566,5.691-6.308,7.529c-6.418,4.303-14.957,1.241-22.239-1.342
				c-33.022-11.711-70.394-10.658-102.704,2.894c-6.072,2.547-12.146,5.652-16.379,10.694c-8.793,10.473-7.042,26.943,0.843,38.114
				c7.886,11.172,20.509,17.994,33.162,23.177c30.311,12.417,63.542,17.638,96.199,15.114c26.957-2.083,57.148-12.513,66.857-37.747
				c4.816-12.517,5.628-29.396,18.131-34.249c4.726-1.835,10.998-1.86,13.311-6.371c2.257-4.401-1.168-9.964,0.522-14.612
				c1.74-4.789,7.792-6.204,11.407-9.795c3.292-3.27,4.329-8.102,5.482-12.596c3.139-12.232,26.848-42.771,23.652-52.772
				C1077.975,654.291,1053.932,687.735,1050.294,695.518z"/>
			<path fill="none" stroke="#51C6CD" stroke-width="2" stroke-linecap="round" stroke-linejoin="round" stroke-miterlimit="10" d="
				M1061.02,701.008c-24.432,13.178-31.053,51.291-58.196,57.104c-15.24,3.263-34.003-4.862-45.163,6.016
				c-5.763,5.617-7.203,14.779-13.431,19.876c-4.046,3.312-9.451,4.341-14.628,5.065c-20.619,2.888-41.664,2.714-62.233-0.512"/>
		</g>
		<g>
			<path fill="#FFFBE9" d="M587.548,698.283c3.425,1.788,7.495,2.368,11.258,1.464c3.064-0.737,5.968-2.384,9.119-2.319
				c7.048,0.145,10.901,8.193,12.523,15.054c1.623,6.859,3.588,15.014,10.189,17.486c9.408,3.524,18.492-7.834,28.517-7.189
				c7.953,0.511,13.316,8.235,16.623,15.486c3.307,7.25,6.345,15.469,13.342,19.281c10.674,5.814,23.543-1.846,35.697-1.99
				c12.115-0.144,23.248,7.54,30.381,17.334c7.156,9.825,16.776,27.554,14.49,40.065c-3.067,16.784-17.901,29.915-34.243,33.428
				c-12.785,2.748-38.083,3.713-47.123-7.589c-3.296-4.122-4.698-9.539-8.155-13.527c-4.889-5.642-12.954-7.428-18.513-12.41
				c-13.344-11.959-8.526-38.071-24.409-46.368c-11.542-6.029-26.161,2.205-38.494-1.973c-8.835-2.992-14.609-12.096-15.755-21.353
				c-1.246-10.062,1.958-21.102-3.027-29.931c-2.717-4.812-7.444-8.075-11.84-11.424c-4.396-3.348-8.815-7.246-10.407-12.538
				c-1.591-5.292,0.967-12.165,6.382-13.271c4.763-0.973,9.26,2.741,11.853,6.854c2.592,4.111,4.184,8.918,7.553,12.421
				C584.681,696.492,586.053,697.503,587.548,698.283z"/>
			<path fill="none" stroke="#51C6CD" stroke-width="2" stroke-linecap="round" stroke-linejoin="round" stroke-miterlimit="10" d="
				M596.285,718.622c8.25,3.138,10.349,13.501,14.534,21.272c4.612,8.563,13.079,14.953,22.578,17.04
				c5.432,1.194,11.126,1.046,16.459,2.626c18.817,5.575,25.875,29.409,42.908,39.159c14.174,8.114,33.903,5.654,45.106,17.539"/>
		</g>
	</g>
	<g>
		<path fill="#0E1E12" d="M830.459,205.735c14.213,4.808,27.031,13.568,35.417,25.528c8.508,12.134,10.594,27.485,15.768,41.372
			c19.018,51.042,76.854,77.199,103.939,124.457c7.562,13.193,12.598,28.978,8.386,43.589c-2.486,8.627-7.998,16.093-14.266,22.521
			c-15.942,16.349-37.046,26.898-58.877,33.595c-23.854,7.316-49.016,10.349-73.924,8.907c-13.888-0.804-27.96-3.071-40.349-9.397
			c-26.282-13.422-40.414-42.268-51.264-69.712c-12.982-32.842-23.783-70.216-9.871-102.675c5.753-13.422,15.65-25.79,15.946-40.389
			c0.387-19.103-16.311-32.129-8.753-51.905c5.255-13.752,19.605-23.51,33.215-27.466
			C800.004,200.037,815.958,200.829,830.459,205.735z"/>
		<polygon fill="#2F7056" points="760.116,822.658 716.478,852.603 831.572,850.117 831.621,817.361 		"/>
		<g>
			
				<rect x="523.184" y="415.28" transform="matrix(-0.9926 -0.1211 0.1211 -0.9926 1021.6198 920.911)" fill="#DB676D" width="31.225" height="28.258"/>
			<g>
				<path d="M507.379,517.902l50.129,23.207l4.708,76.02c0.273,6.778-2.11,13.258-6.71,18.244s-10.867,7.883-17.646,8.156
					c-0.349,0.014-0.695,0.021-1.041,0.021c-13.669,0-24.809-10.708-25.359-24.377L507.379,517.902 M506.313,516.307l4.147,102.908
					c0.572,14.204,12.27,25.336,26.358,25.336c0.36,0,0.719-0.008,1.082-0.022l0,0c14.567-0.587,25.901-12.872,25.314-27.439
					l-4.745-76.637L506.313,516.307L506.313,516.307z"/>
			</g>
			<g>
				<path fill="#EE7071" d="M430.933,790.69l47.591,23.29l28.964-178.586c2.351-14.389-7.408-27.959-21.796-30.31l0,0
					c-14.389-2.351-27.958,7.407-30.31,21.796L430.933,790.69z"/>
			</g>
			<path fill="#F8DD38" d="M430.933,790.69l47.591,23.29l9.495-58.545c-16.59-2.871-34.018-7.065-50.686-7.626L430.933,790.69z"/>
			<g>
				<path fill="#EE7071" d="M519.072,790.055l53.011,17.57l-7.288-185.535c-0.665-14.564-13.011-25.832-27.575-25.167h0
					c-14.564,0.665-25.832,13.011-25.167,27.574L519.072,790.055z"/>
			</g>
			<path fill="#F8DD38" d="M522.107,752.335c-1.424,0.063-3.001,0.056-4.631,0.082l1.596,37.638l53.011,17.57l-2.279-58.014
				c-7.562,0.408-17.702,1.383-19.321,1.455C541.024,751.489,531.566,751.913,522.107,752.335z"/>
			<path fill="#3E896C" d="M558.47,540.452l14.138,137.744c0,0-32.087,14.812-65.046,7.618l-4.686-158.011
				C502.876,527.804,540.609,525.688,558.47,540.452z"/>
			<path fill="#439678" d="M470.538,519.594c-6.39,46.659-16.811,93.516-32.902,137.785c-2.017,5.548-2.359,6.856,2.821,10.562
				c4.571,3.269,9.832,5.541,15.081,7.472c15.642,5.754,32.331,8.645,48.997,8.486c1.945-15.952,6.713-31.133,10.777-46.621
				c1.795-6.842,3.538-13.698,5.217-20.57c1.354-5.537,1.925-11.499,5.416-16.169c4.931-6.598,12.582-10.109,18.781-15.281
				c6.452-5.383,11.341-13.158,13.248-21.369c1.537-6.62,1.478-13.523,0.708-20.275c-0.064-0.562-0.144-1.152-0.476-1.611
				c-0.342-0.474-0.899-0.734-1.432-0.976c-5.197-2.354-10.014-4.623-15.283-6.767c-4.719-1.874-9.419-3.793-14.158-5.616
				c-9.099-3.502-18.365-6.715-27.963-8.54C496.624,519.579,470.979,516.373,470.538,519.594z"/>
			<g>
				<path fill="#4D7996" d="M463.871,548.056c0,0,23.929,12.141,48.899,17.287c42.069,8.672,49.086,3.377,49.086,3.377
					l19.787-123.757l-82.605-18.655c-3.652-0.825-7.282,1.467-8.106,5.12L463.871,548.056z"/>
			</g>
			<polygon fill="#245B33" points="572.346,807.697 574.69,834.212 595.608,848.335 557.608,848.111 512.669,804.409 
				519.447,790.386 			"/>
			<polygon fill="#245B33" points="478.683,814.425 486.663,838.694 506.598,849.812 471.592,850.606 422.846,807.318 
				431.6,785.011 			"/>
			<path fill="#EE7071" d="M515.919,395.903c-1.014,8.313,3.312,14.462,5.753,22.004c3.878,11.981,19.583,17.007,30.375,12.018
				c6.145-2.84,10.89-8.549,12.559-15.109c0.643-2.526,0.849-5.14,1.034-7.739c1.1-15.459-2.313-31.609-20.735-33.856
				C530.638,371.479,517.66,381.635,515.919,395.903z"/>
			<path fill="#DB676D" d="M537.678,445.48c-9.387-1.054-16.421-7.036-15.711-13.362c0.023-0.206,0.055-0.41,0.094-0.611
				l32.927,7.436C552.449,443.548,545.481,446.356,537.678,445.48z"/>
			<path fill="#0E1E12" d="M530.74,404.211c0.327-2.172,0.434-4.412,0.52-6.589c0.134-3.383-0.765-9.276,1.35-11.889
				c5.948,2.711,11.547,5.842,17.859,7.809c1.799,0.561,17.777,5.139,18.542,3.493c4.033-8.673-0.389-19.592-8.173-25.151
				c-7.784-5.558-17.988-6.62-27.495-5.565c-9.362,1.039-22.244,7.155-25.396,16.827c-1.309,4.017-1.162,8.356-0.722,12.558
				c0.625,5.977,1.906,11.984,4.448,17.458c1.265,2.724,2.847,5.309,4.808,7.588c1.831,2.127,3.854,5.21,7.047,4.65
				c0.163-0.028,0.331-0.069,0.456-0.177c0.164-0.143,0.219-0.372,0.245-0.588c0.099-0.832-0.099-1.666-0.265-2.486
				c-0.382-1.892-0.599-3.816-0.646-5.745c-0.021-0.834-0.005-1.694,0.32-2.462c0.9-2.125,1.852-0.962,3.242-1.002
				c0.346-0.01,0.609-0.305,0.815-0.584C529.447,409.978,530.296,407.156,530.74,404.211z"/>
			<path fill="#EE7071" d="M527.204,419.185c-0.475,1.045-1.227,1.847-2.373,2.213c-2.934,0.936-7.037-3-8.422-5.189
				c-2.082-3.293-3.569-8.724-3.163-12.573c0.207-1.957,1.235-3.946,3.029-4.755c2-0.902,4.407-0.119,6.138,1.229
				c2.744,2.136,4.284,5.528,4.873,8.956C527.717,411.572,528.515,416.302,527.204,419.185z"/>
			<path fill="none" stroke="#000000" stroke-miterlimit="10" d="M543.788,418.628c2.609,2.216,6.51,2.779,9.639,1.39"/>
			<path fill="none" stroke="#000000" stroke-miterlimit="10" d="M554.432,408.858c-0.325,1.733,2.499,2.52,2.773,4.261
				c0.122,0.774-0.329,1.55-0.947,2.033c-0.618,0.482-1.383,0.729-2.131,0.967"/>
		</g>
		<g>
			<path d="M796.347,416.142l68.215,10.382l-20.689,135.935c-1.249,8.205-5.412,15.684-11.722,21.061
				c-6.247,5.322-14.182,8.253-22.342,8.253c-1.739,0-3.501-0.134-5.235-0.397c-9.11-1.387-17.135-6.238-22.597-13.66
				c-5.462-7.423-7.706-16.528-6.319-25.639L796.347,416.142 M795.509,415.003l-20.84,136.923
				c-2.95,19.383,10.371,37.487,29.754,40.438l0,0c1.812,0.275,3.608,0.409,5.386,0.409c17.245,0,32.378-12.592,35.052-30.163
				l20.84-136.923L795.509,415.003L795.509,415.003z"/>
		</g>
		<polygon fill="#439678" points="853.594,820.202 810.145,850.421 925.222,847.21 925.063,814.454 		"/>
		
			<rect x="792.593" y="285.974" transform="matrix(0.9659 -0.259 0.259 0.9659 -51.2273 221.1349)" fill="#DB6A70" width="41.991" height="38"/>
		<path fill="#75641F" d="M831.901,826.229l-70.905-3.67l11.008-258.885c1.014-19.58,17.707-34.631,37.287-33.617l0,0
			c19.58,1.014,34.631,17.707,33.618,37.287L831.901,826.229z"/>
		<g>
			
				<rect x="772.087" y="309.708" transform="matrix(0.9659 -0.259 0.259 0.9659 -68.8667 228.7347)" fill="#5C8A80" width="122.999" height="132"/>
		</g>
		<path fill="#917D29" d="M864.924,595.165L864.924,595.165c-19.593-0.721-34.893-17.188-34.172-36.78l-6.75-150.835l82.792,15.037
			l-5.09,138.406C900.983,580.586,884.517,595.886,864.924,595.165z"/>
		<path fill="#917D29" d="M925.554,822.128l-70.58,7.713l-20.924-258.03c-2.13-19.49,11.944-37.017,31.435-39.146l0,0
			c19.489-2.13,37.016,11.943,39.146,31.434L925.554,822.128z"/>
		<g>
			<path fill="#5C8A80" d="M950.269,400.157l-17.676-71.944c-5.853-23.822-29.909-38.389-53.731-32.537l-4.45,1.093l28.272,115.078
				c3.229,13.14,16.498,21.175,29.638,17.947l0,0C945.462,426.566,953.497,413.297,950.269,400.157z"/>
		</g>
		<path fill="#EE7071" d="M833.777,249.027c2.916,10.877-1.686,19.881-3.515,30.383c-1.57,9.016-9.129,16.062-17.584,19.562
			s-17.792,4.069-26.929,4.594c-4.607-8.233-8.836-16.679-12.667-25.302c-2.89-6.505-5.583-13.224-6.304-20.305
			c-1.6-15.702,9.102-29.643,24.127-33.672C809.576,219.28,828.771,230.356,833.777,249.027z"/>
		<path fill="#5C8A80" d="M816.195,326.228c12.557-1.919,21.688-10.335,20.394-18.797c-0.042-0.275-0.096-0.547-0.159-0.816
			l-43.845,11.758C796.242,324.424,805.757,327.823,816.195,326.228z"/>
		<g>
			<polygon fill="#88B7AC" points="821.163,310.708 843.353,290.507 850.562,304.579 838.152,322.662 			"/>
		</g>
		<g>
			<polygon fill="#88B7AC" points="811.147,312.595 781.689,306.878 782.85,322.647 802.853,331.64 			"/>
		</g>
		<path fill="none" stroke="#000000" stroke-miterlimit="10" d="M805.12,465.835c-12.303-1.105-24.527-3.077-36.553-5.9
			c-0.036-25.348-1.123-50.695-3.257-75.952c-1.529-18.088-5.289-37.308-10.389-54.702c12.734-3.445,25.132-8.135,36.957-13.98
			c7.169,28.735,6.599,58.792,7.409,88.151c0.317,11.463,0.73,22.93,1.451,34.376c0.486,7.737-0.15,18.143,2.902,25.444
			C803.912,463.92,804.156,465.748,805.12,465.835z"/>
		<path fill="#0E1E12" d="M791.963,266.182c8.485,6.148,18.132,10.593,27.843,14.592c9.271,3.818,19.376,7.34,29.143,5.066
			c1.709-0.398-7.216-28.27-7.8-31.218c-2.192-11.073-6.527-22.345-15.331-29.944c-10.637-9.182-26.263-10.842-39.86-7.295
			c-28.076,7.325-12.664,33.962,3.072,46.565C789.99,264.717,790.969,265.461,791.963,266.182z"/>
		<polygon fill="#2F7056" points="765.794,709.711 759.996,823.559 831.901,827.229 836.708,713.185 		"/>
		<path fill="#439678" d="M854.974,829.841l70.58-7.713l-9.086-112.047c-18.133,0.573-56.528,1.848-70.979,2.793L854.974,829.841z"
			/>
		<rect x="757.881" y="697.395" transform="matrix(1 -0.0064 0.0064 1 -4.5597 5.1428)" fill="#266047" width="82" height="31"/>
		
			<rect x="842.339" y="694.028" transform="matrix(0.9967 -0.0811 0.0811 0.9967 -54.6045 73.934)" fill="#3E896C" width="81.999" height="30.999"/>
		<g>
			<circle fill="#51C6CD" cx="730.795" cy="476.623" r="172.5"/>
			<g>
				<defs>
					<circle id="SVGID_1_" cx="730.795" cy="476.623" r="172.5"/>
				</defs>
				<clipPath id="SVGID_2_">
					<use xlink:href="#SVGID_1_"  overflow="visible"/>
				</clipPath>
				<g clip-path="url(#SVGID_2_)">
					<g>
						<path fill="#D6E882" d="M1412.174,685.183c-6.014,4.274-12.026,8.549-18.669,13.271c-0.349-3.866,6.501-4.769,1.057-8.374
							c7.427-3.248,8.922-8.865,7.188-15.938c0.383-0.04,0.765-0.08,1.146-0.12c0.609,1.196,1.778,2.412,1.736,3.585
							c-0.23,6.453,1.396,7.786,7.552,5.774C1412.181,683.981,1412.177,684.582,1412.174,685.183z"/>
						<path fill="#D6E882" d="M1165.143,517.942c-2.249,1.357-4.498,2.716-7.657,4.623c-4.955-16.054-15.694-29.808-16.672-47.29
							c-3.82,3.175-5.821,2.718-10.259-2.692c0.795-0.513,1.645-1.06,2.467-1.591c-0.334-0.392-0.468-0.663-0.685-0.784
							c-2.732-1.534-6.12-2.477-8.082-4.687c-3.764-4.239-8.153-2.986-12.697-3.111c-5.502-0.151-11.023-0.974-16.432-2.039
							c-1.173-0.231-1.898-2.729-2.829-4.18c-5.263,3.187-13.733,0.543-17.051-5.149c-1.402-2.407-2.047-5.842-5.967-5.426
							c-1.172,0.124-2.292,0.742-4.193,1.394c2.174,2.931,4.083,5.156,5.583,7.63c1.419,2.339,2.407,4.939,3.688,7.644
							c0.537-0.676,1.239-1.562,2.161-2.724c0.417,0.726,0.798,1.164,0.937,1.667c0.48,1.743,0.877,3.508,1.306,5.265
							c2.56-0.924,5.262-1.585,7.634-2.858c1.75-0.939,3.069-2.679,4.757-4.222c0.801,4.177,2.99,7.003,7.361,8.42
							c1.683,0.546,4.121,4.057,3.714,4.753c-1.216,2.08,0.541,6.073-3.644,6.387c-0.44,0.033-1.087,0.692-1.204,1.167
							c-1.514,6.158-6.304,8.586-11.527,11.044c-4.82,2.269-9.064,5.728-13.754,8.316c-4.035,2.229-8.218,4.349-12.582,5.749
							c-1.882,0.604-4.864,0.198-5.199-3.333c-0.306-3.219-0.951-6.409-1.552-9.593c-0.187-0.99-0.522-2.061-1.117-2.848
							c-3.021-4.001-6.249-7.851-9.182-11.915c-0.877-1.215-1.11-2.929-1.505-4.448c-0.438-1.686-0.131-4.122-1.18-4.999
							c-4.695-3.926-6.696-9.597-10.085-14.342c-0.489-0.685-1.32-1.182-2.083-1.603c-2.244-1.241-4.533-2.4-5.809-3.069
							c6.859,14.819,14.41,31.129,22.434,48.461c0.56-1.473,0.923-2.428,1.206-3.172c4.833,6.852,9.207,13.054,13.106,18.582
							c6.748-1.438,12.784-2.724,19.419-4.138c-0.01,1.536,0.392,3.464-0.108,5.121c-1.426,4.722-3.038,9.407-4.916,13.967
							c-2.042,4.957-5.667,8.511-9.97,11.854c-4.613,3.585-8.665,8.157-12.097,12.922c-3.15,4.373-5.239,9.532-7.633,14.425
							c-2.438,4.986-0.707,14.749,3.117,18.535c0.316,0.313,0.939,0.616,0.933,0.912c-0.109,4.594,0.009,9.229-0.643,13.753
							c-0.22,1.528-2.358,2.855-3.755,4.126c-4.508,4.1-9.159,8.046-13.541,12.273c-0.672,0.648-0.343,2.476-0.248,3.741
							c0.11,1.472,0.558,2.915,0.709,4.387c0.501,4.876-0.959,8.53-5.949,10.46c-1.944,0.752-2.458,2.249-2.541,5.013
							c-0.098,3.269-0.105,8.185-5.03,10.093c-1.725,0.668-2.699,3.086-4.233,4.463c-3.964,3.559-8.025,7.011-12.109,10.434
							c-0.66,0.554-1.642,1.066-2.455,1.038c-4.621-0.158-8.864,0.691-13.31,2.326c-4.476,1.646-6.877-2.775-6.862-7.744
							c0.013-4.022-2.589-8.026-3.877-12.087c-2.005-6.322-3.874-12.687-5.812-19.029c-0.768-2.511-1.048-5.353-2.435-7.462
							c-7.043-10.706-7.645-21.468-1.125-32.566c0.374-0.637,0.968-1.394,0.881-2.013c-0.718-5.071-0.659-10.511-2.604-15.089
							c-2.79-6.569-7.093-12.493-10.691-18.727c-0.488-0.847-1.059-1.978-0.877-2.823c0.768-3.562,1.693-7.102,2.775-10.582
							c1.08-3.472-0.299-5.571-3.456-6.611c-1.688-0.556-3.654-0.326-5.289-0.971c-1.695-0.67-3.156-1.945-4.692-2.996
							c-1.83-1.253-3.773-3.783-5.417-3.592c-4.772,0.554-9.409,2.229-14.121,3.379c-1.452,0.354-3.256,1.056-4.407,0.527
							c-3.85-1.766-7.283-1.487-10.551,1.054c-2.269,1.765-4.138,1.812-6.767,0.161c-9.216-5.787-16.536-13.075-20.748-23.286
							c-0.808-1.957-2.581-3.515-3.387-5.473c-1.485-3.605-1.981-7.261,0.277-10.957c0.696-1.139,0.604-2.959,0.413-4.407
							c-1.416-10.731,0.934-20.32,7.511-29.1c2.377-3.172,4.432-5.787,8.336-7.406c2.225-0.923,3.888-4.415,4.764-7.09
							c1.313-4.016,2.402-7.519,6.249-10.323c3.05-2.223,4.644-6.443,7.05-10.022c-0.786-4.67-5.151-2.892-7.415-3.41
							c-0.635-2.222-1.168-3.88-1.562-5.571c-0.154-0.662-0.104-1.418,0.036-2.094c0.888-4.303,1.825-8.595,3.03-14.215
							c4.376-2.782,10.448-0.037,16.262,0.61c2.96,0.329,3.709-0.047,4.028-2.752c0.987-8.364,1.037-8.349-6.851-12.791
							c-0.467-0.263-0.751-0.848-1.509-1.742c1.991-0.368,3.98-1.406,4.993-0.803c3.807,2.267,3.628-0.417,3.904-2.736
							c5.119,1.254,7.562-0.184,8.957-5.232l-0.003,0.011c3.441-0.375,6.166-1.082,8.041-4.921c0.966-1.977,5.022-3.153,7.782-3.356
							c3.157-0.234,3.476-1.749,2.537-3.644c-2.517-5.08-1.065-7.813,4.939-8.67c-0.266,2.815-0.883,5.707-0.61,8.512
							c0.09,0.929,2.493,2.333,3.792,2.285c2.084-0.077,3.985-1.54,5.966,0.814c0.503,0.598,3.022-0.04,4.337-0.681
							c2.736-1.336,5.115-2.61,8.369-0.856c1.027,0.554,3.306-1.213,3.809-1.421c0.78-3.442,1.354-5.969,1.926-8.497
							c1.917,0.628,3.833,1.256,5.962,1.954c2.983-2.827-1.189-4.393-2.315-7.396c5.34-0.73,10.192-1.395,15.046-2.058
							c-0.005-0.5-0.01-0.999-0.015-1.498c-2.688-0.016-5.392-0.206-8.062,0.009c-2.073,0.167-4.181,1.395-6.134,1.131
							c-1.969-0.266-5.326-1.777-5.335-2.767c-0.024-2.593-3.964-5.812,0.874-8.111c2.452-1.166,4.43-3.331,6.688-5.095
							c-4.853-3.281-6.778-2.699-9.198,2.264c-0.47,0.963-1.616,1.672-2.581,2.297c-1.243,0.807-2.754,1.237-3.909,2.137
							c-3.296,2.564-2.631,5.7,2.054,9.275c-1.146,3.814-8.578,4.795-4.674,10.684c-3.879,1.456-7.149,2.683-10.42,3.91
							c-0.114-0.295-0.228-0.59-0.341-0.885c-0.58,1.101-1.159,2.201-2.037,3.866c-0.696-1.673-1.163-2.797-1.736-4.173
							c1.36-0.689,2.632-1.334,4.098-2.077c-1.49-3.011-2.961-5.983-4.736-9.569c-1.264,0.643-2.857,1.238-4.208,2.18
							c-4.598,3.209-8.169,1.792-8.991-3.673c-0.97-6.445,1.277-8.956,8.357-11.881c3.264-1.348,5.851-4.453,8.577-6.944
							c2.33-2.129,4.422-4.52,7.167-7.364c-1.622,0.329-2.439,0.494-3.256,0.659c-0.053-0.385-0.104-0.771-0.157-1.157
							c1.696-0.229,3.389-0.485,5.089-0.666c0.425-0.045,0.875,0.156,1.027-0.876c2.385-0.748,4.753-1.554,7.157-2.23
							c2.743-0.771,5.484-1.733,8.289-2.054c3.682-0.419,7.426-0.402,11.141-0.362c2.445,0.026,3.387,2.745,6.356,3.085
							c6.083,0.697,11.995,3.034,17.919,4.885c1.758,0.549,3.318,1.729,5.686,3.007c-6.825,5.863-13.16,1.178-18.853,1.064
							c1.259,1.641,2.577,3.557,4.117,5.275c0.7,0.782,1.863,1.639,2.772,1.592c0.747-0.038,1.429-1.361,2.157-2.134
							c2.05,0.595,4.154,1.206,6.35,1.843c0.169-4.298,4.027-6.55,9.465-5.062c-1.187-2.842-2.138-5.119-3.158-7.562
							c2.063,0.557,4.279,1.155,7.646,2.063c-1.866,0.898-2.668,1.284-3.798,1.828c0.564,0.406,1.084,1.038,1.369,0.946
							c5.408-1.749,10.789-3.583,15.622-5.212c1.67,0.852,3.428,2.369,4.097,1.986c3.898-2.234,9.164,0.111,13.994-4.114
							c4.341,1.042,10.097,2.425,15.853,3.807c0.24-0.147,0.48-0.294,0.721-0.442c-2.558-2.111-5.115-4.223-7.692-6.352
							c1.493-2.865,2.781-5.337,3.622-6.953c2.405,0.712,4.617,1.368,6.828,2.023c-0.264,0.155-0.527,0.31-0.791,0.464
							c2.752,4.217,5.504,8.434,8.828,13.527c-1.242,0.729-3.336,1.958-5.429,3.186c0.025,0.326,0.051,0.651,0.076,0.977
							c2.358-0.395,5.093-0.207,6.937-1.398c1.146-0.74,0.964-3.565,1.322-5.465c0.07-0.372,0.027-0.966-0.209-1.166
							c-2.746-2.317-5.539-4.579-8.562-7.054c1.167-1.08,2.216-2.05,2.491-2.305c3.392,1.699,6.346,3.178,9.3,4.658
							c0.214-0.521,0.428-1.041,0.641-1.561c-1.976-0.408-3.951-0.816-5.928-1.224c-0.071-0.511-0.143-1.022-0.214-1.534
							c2.371-0.416,4.742-0.832,7.233-1.27c-0.369-0.564-0.812-1.242-1.715-2.624c4.113-0.222,7.731-0.417,12.044-0.649
							c-1.093-0.844-1.736-1.342-3.202-2.475c6.713-1.924,12.192-5.14,19.032-3.226c1.718,0.48,4.141-1.491,6.218-2.384
							c1.393-0.599,3.228-2.208,4.045-1.784c6.486,3.363,13.648,1.793,20.35,3.228c1.728,0.37,3.293,1.497,5.574,2.581
							c-3.926,2.652-6.987,4.72-10.049,6.788c3.183-2.355,9.249,1.017,9.986-4.24c8.697,1.54,17.113,3.029,25.525,4.519
							c0.268-1.051,0.455-1.788,0.719-2.826c3.991,2.415,8.512-0.727,12.258,2.256c2.846,2.265,6.045,4.083,9.047,6.158
							c2.304,1.593,3.612,1.11,3.864-1.45c4.945,0.029,9.8,0.058,15.266,0.09c-1.002-1.212-1.537-1.859-2.677-3.237
							c4.558-0.164,8.465-1.186,12.195,1.369c0.715,0.49,1.956,1.282,2.34,1.023c5.351-3.607,10.828,0.009,14.754,1.709
							c3.998,1.732,6.591,0.389,9.847,0.241c4.84-0.22,9.644-0.205,13.276,3.972c0.666,0.766,2.159,1.24,3.219,1.162
							c5.008-0.373,9.991-1.249,14.998-1.379c2-0.052,4.037,1.358,6.058,2.101c1.032,0.379,2.065,0.755,3.401,0.384
							c-1.366-0.677-2.731-1.354-4.098-2.031c21.125-0.888,40.387,7.612,60.728,10.611c-0.457,0.581-0.913,1.162-1.37,1.743
							c0.696,1.379,1.394,2.758,2.481,4.913c-6.825-1.754-13.468-3.461-20.11-5.167c0.934,1.126,1.867,2.252,2.801,3.378
							c-0.975,1.208-1.95,2.417-2.926,3.625c-0.953-1.166-1.907-2.331-2.86-3.496c3.552,1.893,7.104,3.785,10.656,5.678
							c-0.061,0.409-0.122,0.819-0.183,1.228c-5.297-1.188-9.076-0.028-10.324,5.657c-0.133,0.603-1.953,1.1-3.026,1.183
							c-4.226,0.327-8.465,0.47-12.698,0.681c-0.279,0.592-0.56,1.184-0.839,1.776c3.828,3.479,7.656,6.958,11.556,10.502
							c-0.588-0.003-1.222-0.007-1.854-0.011c-0.251,0.264-0.502,0.528-0.753,0.792c1.491,0.903,2.982,1.807,3.566,2.161
							c-0.673,6.208-1.236,11.397-1.921,17.712c-1.1-2.691-1.295-4.332-2.216-5.223c-4.085-3.952-8.699-7.401-12.468-11.617
							c-2.11-2.36-4.146-5.902-4.046-8.837c0.122-3.556,2.534-7.035,3.95-10.535c-1.11-1.742-2.183-3.423-3.693-5.794
							c-0.353,1.364-0.477,1.941-0.652,2.503c-0.372,1.189-0.482,2.669-1.274,3.438c-0.444,0.432-2.057-0.252-3.104-0.564
							c-0.554-0.166-0.997-0.822-1.538-0.892c-2.23-0.288-4.479-0.436-6.721-0.635c-0.015,2.436-0.028,4.872-0.046,7.759
							c-1.741,0.416-3.887,2.004-6.644-0.718c-1.142-1.128-4.335-0.102-6.589-0.202c-2.609-0.115-5.301-0.039-7.793-0.682
							c-3.548-0.915-6.741,0.29-8.055,3.686c-1.477,3.822-2.936,7.651-4.521,11.786c1.58,0.348,3.391,0.747,5.493,1.211
							c-0.187-0.916-0.353-1.728-0.599-2.935c0.849,0.377,1.452,0.452,1.56,0.723c0.969,2.448,1.078,5.4,5.404,3.173
							c1.434-0.738,4.533,1.543,6.768,2.654c1.405,0.699,2.617,1.789,3.915,2.703l-0.084-0.113c0.674,2.296,0.794,4.992,2.117,6.817
							c5.594,7.718,1.946,15.422,0.253,23.05c-0.527,2.375-2.428,3.907-5.58,2.43c-3.194-1.496-4.224,1.209-4.965,3.59
							c-0.801,2.577-1.405,5.216-2.265,8.471c1.977,1.675,5.122,4.008,7.862,6.748c3.348,3.347,3.331,7.759,0.268,9.031
							c-1.498,0.622-3.104,0.981-5.021,1.57c-0.902-2.934-1.633-5.957-2.797-8.803c-0.52-1.272-2.013-3.186-2.888-3.096
							c-3.897,0.401-3.954-1.813-3.797-4.527c0.032-0.554-0.233-1.125-0.556-2.542c-2.821,0.644-5.482,1.471-8.198,1.74
							c-0.83,0.082-1.992-1.235-2.671-2.155c-0.616-0.835-0.781-2.003-1.146-3.024c-0.852,0.508-1.805,0.901-2.534,1.548
							c-1.807,1.603-3.511,3.321-5.792,5.506c0.325,0.311,1.048,1.248,1.989,1.828c0.808,0.497,2.422,0.305,2.724,0.901
							c1.885,3.72,3.526,1.707,4.994,0.031c2.235,0.84,4.255,1.6,6.275,2.359c-0.62-0.618-1.24-1.235-1.86-1.853
							c-1.889,2.838-3.778,5.676-5.528,8.304c3.999,3.989,7.818,7.451,11.154,11.328c1.078,1.252,0.888,3.596,1.46,6.307
							c3.037,0.562,2.958,3.29,1.273,6.61c-2.794,5.507-3.01,12.362-8.516,16.44c-1.378,1.02-2.834,2.074-4.422,2.644
							c-5.332,1.916-11.003,3.124-14.988,8.091c-1.729-2.683-3.046-6.402-7.303-3.173c-4.145,3.143-5.212,7.151-2.609,11.18
							c0.964,1.492,1.91,3.334,3.353,4.121c6.743,3.675,7.723,9.801,7.6,16.521c-0.011,0.597,0.164,1.484-0.152,1.745
							c-4.038,3.334-8.15,6.578-13.069,10.502c0.192-2.621,0.294-4.003,0.33-4.493c-5.106-4.41-9.744-8.415-14.339-12.384
							c-2.075,3.398-1.656,11.811-0.412,15.408c1.436,4.154,3.972,6.682,7.323,9.195c3.139,2.354,4.829,5.81,4.764,10.194
							c-0.034,2.248,1.714,4.523,2.677,6.835c-8.325-0.219-10.904-5.94-12.384-12.608c-0.912-4.112-1.448-8.232-6.148-10.198
							c-0.902-0.378-1.649-2.812-1.373-4.054c1.996-8.985-1.505-16.91-4.465-24.949c-0.24-0.654-0.958-1.133-1.076-1.267
							c-2.756,1.008-5.262,1.924-8.247,3.017c0.877-10.768-7.464-15.783-10.474-22.419c-3.564,0.671-6.462,1.164-9.332,1.785
							c-0.969,0.21-2.163,0.489-2.753,1.171c-4.355,5.027-8.488,10.249-12.896,15.229c-1.862,2.104-4.22,3.77-5.492,4.883
							c-0.782,7.227-1.505,13.79-2.181,20.358c-0.059,0.57,0.194,1.172,0.303,1.76L1165.143,517.942z M961.083,418.064
							c1.33-0.657,1.611-0.927,1.848-0.893c3.473,0.502,8.08,1.039,8.626-2.833c0.308-2.176-4.087-5.034-6.415-7.537
							c-0.255-0.274-0.98-0.093-1.265-0.36c-2.65-2.497-5.6-4.784-7.763-7.658c-1.885-2.505-3.195-4.07-6.342-1.86
							c-2.748,1.929-5.576,3.726-9.384,1.745c-0.834-0.434-4.177,1.51-4.246,2.507c-0.204,2.937-1.021,4.409-4.076,4.7
							c-1.009,0.096-2.214,1.012-2.816,1.9c-1.303,1.919-3.844,3.198-2.41,6.576c0.76,1.791-5.614,6.217-8.439,6.762
							c-2.813,0.542-6.69-0.731-7.802,4.205c1.233,0.564,2.612,1.794,3.779,1.619c4.254-0.64,8.679-1.183,12.578-2.844
							c3.732-1.59,6.845-4.081,11.292-2.066c1.159,0.525,3.07-0.779,4.67-1.021c4.023-0.608,8.059-1.183,12.11-1.513
							c0.565-0.046,1.869,1.457,1.774,2.082c-0.454,2.978,2.41,6.418-1.186,9.017c-0.316,0.229,0.038,1.387,0.135,3.024
							c1.279-1.617,1.942-2.456,1.874-2.369c3.729,1.783,7.338,2.923,10.229,5.042c3.345,2.453,6.562,4.801,10.655,5.859
							c1.528,0.395,2.872,1.501,4.301,2.283c0.562-1.413,1.382-2.781,1.641-4.248c0.797-4.521,4.574-6.305,8.582-4.074
							c2.802,1.559,5.646,3.561,8.683,4.055c4.618,0.75,9.414,2.741,14.185,0.084c0.572-0.318,1.844,0.882,2.694,0.751
							c2.268-0.349,5.728-0.342,6.498-1.717c2.976-5.315,4.497-11.217,3.422-17.826c-1.781,0.58-3.521,0.785-4.824,1.649
							c-2.495,1.656-4.5,1.933-6.762-0.432c-0.577-0.603-2.455-0.568-3.387-0.114c-3.38,1.649-8.117,0.212-9.628-3.28
							c-1.154-2.671-2.141-5.416-3.567-9.061c3.717,0.001,7.685-0.907,10.763-3.836c0.18-0.171,0.863,0.304,1.272,0.237
							c1.126-0.182,2.385-0.237,3.318-0.796c3.944-2.366,7.649-1.914,11.854-0.31c3.62,1.381,7.709,1.757,11.626,1.998
							c1.064,0.065,3.096-1.922,3.16-3.053c0.067-1.187-1.596-2.576-2.693-3.688c-0.79-0.8-1.837-1.408-2.866-1.899
							c-4.622-2.21-8.44-7.476-14.72-3.678c-0.735,0.445-2.896-0.68-3.89-1.615c-1.826-1.716-3.276-3.833-5.783-6.876
							c-3.359,5.749-6.277,10.06-8.331,14.75c-0.495,1.13,1.877,3.515,3.55,6.387c-3.887-0.023-7.131-0.071-10.374-0.039
							c-0.705,0.007-1.479,0.165-2.096,0.49c-1.437,0.754-2.796,1.653-4.825,2.879c1.234,1.669,2.775,3.75,4.941,6.677
							c-2.439-0.654-3.895-1.129-5.384-1.429c-5-1.006-7.744-4.024-8.769-8.785c-0.39-1.81-1.671-3.774-3.128-4.943
							c-4.843-3.884-9.949-7.439-15.724-11.685c-0.234,1.721-1.102,3.665-0.496,4.405c2.497,3.051,5.272,5.931,8.269,8.498
							c2.692,2.307,5.807,4.121,8.735,6.152c-0.258,0.347-0.516,0.695-0.773,1.042c-1.191-0.734-2.383-1.469-3.574-2.203
							c2.012,5.983-3.601,8.602-5.447,13.376C966.497,420.957,964.105,419.679,961.083,418.064z"/>
						<path fill="#D6E882" d="M691.259,521.3c3.537-7.655,9.992-11.296,17.397-13.783c-0.173,2.89-0.346,5.763-0.521,8.679
							c2.329-3.239,4.462-6.206,6.858-9.539c5.44,9.345,14.2,6.739,21,6.436c3.581,3.116,6.514,5.644,9.417,8.204
							c1.479,1.304,3.306,2.427,4.271,4.051c2.014,3.392,4.74,5.247,8.611,4.881c7.35-0.694,12.662,2.092,15.564,8.742
							c1.37,3.142,5.258,5.538,3.135,9.852c-0.11,0.226,0.724,0.862,1.039,1.358c1.037,1.63,2.038,3.283,3.257,5.257
							c1.477-1.17,3.425-4.909,7.173-2.002c2.363,1.833,4.557,3.886,6.992,5.983c7.729-0.085,15.979-0.197,22.49,6.412
							c0.315,0.319,0.633,0.753,1.024,0.862c5.028,1.405,6.611,4.759,6.398,9.811c-0.193,4.601-1.099,8.513-4.877,11.539
							c-1.2,0.961-1.849,2.633-2.683,4.02c-0.303,0.503-0.248,1.439-0.637,1.642c-5.897,3.067-2.487,8.589-3.525,12.929
							c-1.668,6.977-3.537,13.905-5.441,20.821c-0.254,0.919-1.042,2.066-1.864,2.389c-4.069,1.6-8.169,3.197-12.382,4.335
							c-4.739,1.279-7.651,3.813-7.074,8.587c0.739,6.117-0.522,11.208-5.28,14.737c-0.953,0.516-2.468,0.822-2.753,1.587
							c-0.829,2.226-1.049,4.669-1.72,6.966c-1.731,5.927-3.956,7.19-9.908,5.772c-1.432-0.342-2.839-0.784-4.841-1.344
							c1.661,1.996,2.683,4.081,4.351,5.026c2.442,1.384,2.979,3.228,1.73,5.128c-1.096,1.667-2.97,3.229-4.835,3.885
							c-2.485,0.873-5.296,0.823-8.203,1.201c-0.016,2.786,0.695,5.754-0.367,7.801c-0.497,0.958-4.42,0.139-8.025,0.117
							c2.644,2.163,4.785,3.915,6.312,5.164c-0.865,2.278-1.598,4.455-2.531,6.543c-0.365,0.814-1.213,1.403-1.791,2.135
							c-0.778,0.983-2.345,2.444-2.093,2.925c0.615,1.175,1.945,2.29,3.229,2.742c4.831,1.704,4.741,1.526,2.082,6.039
							c-1.192,2.023-1.768,4.41-3.024,7.676c0.87,0.951,2.441,2.668,4.187,4.575c-0.862-0.005-1.641-0.01-2.42-0.015
							c-0.104,0.221-0.208,0.44-0.312,0.661c4.668,2.549,9.335,5.099,13.969,7.629c-3.801,3.793-8.232,1.975-12.481,0.925
							c-7.296-1.803-13.062-6.341-18.113-11.546c-2.595-2.674-4.188-6.414-5.813-9.871c-0.408-0.869,0.809-2.501,1.389-4.084
							c-1.446-1.069-3.064-2.267-4.729-3.497c3.928-3.439,4.589-11.933,1.049-15.354c-0.916-0.886-3.095-0.463-5.632-0.746
							c0.236-1.018,0.896-2.54,0.868-4.05c-0.038-2.152-0.089-4.542-1.016-6.388c-1.576-3.141-1.756-5.769-0.761-9.31
							c1.087-3.87,1.262-8.541,0.157-12.381c-3.365-11.689-2.216-23.528-2.524-35.355c-0.198-7.562-0.314-15.676-9.142-19.21
							c-10.639-4.26-16.186-12.683-20.089-22.916c-2.172-5.696-4.906-11.411-11.341-13.505c0.316-4.431-2.389-9.503,3.619-12.076
							c-3.859-2.664-3.326-9.318,0.425-13.2c2.341-2.423,4.635-4.898,6.827-7.455c1.857-2.167,1.527-12.411-0.027-14.74
							c-0.735-1.102-0.69-2.725-0.097-4.599c-1.213-0.773-2.427-1.547-4.262-2.716c-1.292,2.326-2.461,4.428-3.899,7.016
							c-4.922-2.956-10.09-6.055-15.248-9.17c-0.243-0.146-0.607-0.501-0.562-0.655c1.484-5.08-3.895-7.224-4.887-10.885
							c-2.045-0.515-4.069-0.976-6.059-1.554c-0.703-0.204-1.359-1.055-1.977-0.994c-4.841,0.472-6.758-2.714-9.118-6.152
							c-0.965-1.407-4.774-2.15-6.571-1.422c-3.451,1.398-5.85,0.48-8.794-1.063c-4.661-2.445-9.51-4.623-14.47-6.378
							c-4.698-1.664-6.829-5.277-6.106-10.202c0.35-2.386-0.233-5.3-1.388-7.438c-2.887-5.349-5.79-10.87-9.728-15.418
							c-3.811-4.402-3.659-9.946-5.454-14.9c-0.564-0.044-1.129-0.088-1.694-0.133c-0.486,1.541-1.579,3.189-1.33,4.601
							c0.486,2.763,1.6,5.443,2.68,8.065c1.077,2.617,2.764,5.021,3.567,7.703c0.799,2.668,0.832,5.567,0.358,8.957
							c-3.265-5.174-6.53-10.348-10.121-16.04c0.054-0.066,0.794-0.61,1.008-1.313c1.092-3.588-4.218-18.528-7.266-20.92
							c-1.031-0.809-2.663-1.793-2.71-2.761c-0.32-6.577-3.199-13.368,0.594-19.702c4.767-7.959,9.852-15.728,14.467-23.051
							c1.628,0.098,3.371,0.643,3.766,0.137c0.926-1.186,1.635-2.877,1.632-4.362c-0.004-1.661-1.092-3.292-1.325-4.989
							c-0.157-1.141,0.349-2.374,0.688-4.306c-8.886-1.826-5.278-7.971-1.957-14.429c-2.292,0.092-3.647,0.147-5.207,0.209
							c0.003-0.571-0.016-1.305,0.015-2.037c0.397-9.329,0.394-9.308-8.499-11.642c-1.286-0.337-2.508-0.947-3.727-1.505
							c-0.677-0.311-1.272-0.796-1.925-1.164c-4.353-2.451-8.087,2.487-11.328,1.616c-4.008-1.077-7.003-2.167-10.88,0.314
							c-10.56,6.756-22.167,11.05-34.331,13.816c-0.139-0.357-0.278-0.714-0.417-1.071c5.794-2.139,11.589-4.278,17.384-6.417
							c-0.1-0.386-0.2-0.773-0.3-1.159c-1.958-0.179-3.915-0.357-6.283-0.573c0.562-1.672,0.973-2.892,1.363-4.054
							c-4.21-3.371-4.11-5.283,0.784-7.004c4.722-1.661,9.74-2.46,14.54-3.927c2.888-0.882,5.607-2.317,8.402-3.503
							c-0.203-0.641-0.405-1.282-0.607-1.922c-2.395,0.248-4.797,0.73-7.182,0.652c-1.313-0.043-2.597-1.026-3.894-1.585
							c1.188-0.851,2.326-2.333,3.571-2.429c3.231-0.248,6.509,0.191,9.768,0.197c1.411,0.002,2.982-0.107,4.146-0.761
							c0.391-0.22,0.041-2.436-0.489-3.475c-1.259-2.47-0.473-3.657,2.025-4.164c9.965-2.02,19.854-4.777,29.92-5.81
							c6.822-0.7,13.899,0.959,20.849,1.683c4.458,0.463,9.123,0.476,13.278,1.903c4.636,1.592,8.935,2.962,13.669,0.957
							c5.679,5.447,9.833-0.962,14.728-1.756c2.281-0.37,4.773,0.629,7.178,0.942c7.009,0.911,14.021,1.788,22.314,2.841
							c-2.097,1.751-2.952,2.465-3.807,3.179c0.097,0.359,0.194,0.718,0.292,1.077c3.734-0.441,7.468-0.882,11.56-1.365
							c0.102,0.849,0.223,1.862,0.393,3.28c3.51-4.062,6.681-6.587,12.206-3.676c2.963,1.561,7.053,1.238,10.634,1.231
							c1.237-0.003,2.709-1.419,3.662-2.541c2.965-3.487,5.499-4.017,9.303-1.379c-1.87,1.36-3.67,2.671-5.471,3.981
							c0.307,0.404,0.614,0.808,0.921,1.212c3.349-1.079,6.042-3.193,7.414-6.589c2.529-6.258,12.575-12.74,19.909-11.421
							c-2.951,1.284-6.355,2.029-8.721,4.012c-2.139,1.793-3.142,4.94-4.761,7.686c3.12,0.552,5.917,1.115,2.872,5.274
							c0.307,0.245,0.614,0.491,0.921,0.736c3.069-0.919,6.138-1.838,9.151-2.741c-0.243-1.902-0.418-3.268-0.593-4.631
							c-1.693-0.425-3.411-0.855-5.129-1.286c0.02-0.281,0.039-0.562,0.059-0.843c1.041-0.228,2.082-0.455,3.552-0.776
							c-1.216-0.472-2.017-0.783-2.769-1.075c-0.458-2.713,7.97-6.506,13.705-6.298c-1.715,1.353-3.481,2.748-5.249,4.142
							c0.168,0.272,0.335,0.544,0.503,0.816c2.463-1.239,4.828-3.093,7.423-3.506c1.82-0.29,6.133-3.829,6.268,2.645
							c1.081,0.088,2.534,0.207,3.986,0.326c0.08-0.317,0.159-0.635,0.239-0.953c-1.003-0.462-2.006-0.925-3.103-1.431
							c0.188-0.472,0.412-1.224,0.49-1.209c2.568,0.489,6.145-2.61,7.506,2.638c0.42,1.618,2.378,4.409,6.149,3.277
							c1.574-0.472,4.123,2.307,6.229,3.607c-1.003,1.387-2.005,2.774-3.353,4.64c3.227,1.571,7.087,3.451,11.339,5.521
							c-2.794,1.419-5.353,2.547-7.737,3.967c-4.443,2.644-2.941-4.282-6.687-3.345c-1.027,1.405-2.252,2.747-0.139,5.438
							c0.958,1.221-0.36,4.23-0.662,6.556c-2.79-1.31-4.881-2.292-6.973-3.274c-0.321,0.385-0.644,0.771-0.966,1.156
							c1.458,0.702,2.916,1.405,4.373,2.107c-0.358,0.67-0.718,1.341-1.076,2.011c-3.244-0.881-6.487-1.762-10.046-2.728
							c-0.515-4.343-2.751-6.526-7.837-4.831c-1.43,0.477-3.234-0.174-4.867-0.308c-0.025-0.646-0.052-1.292-0.077-1.938
							c2.095-0.156,4.188-0.364,6.285-0.454c2.35-0.1,4.968,0.759,5.875-2.791c0.19-0.746,2.183-1.058,3.364-1.519
							c3.55-1.386,3.986-3.487,1.302-6.265c-1.749-1.81-3.474-3.644-5.208-5.466c-0.113,0.453-0.226,0.906-0.338,1.358
							c-1.492-0.009-2.988-0.094-4.475-0.006c-1.752,0.103-3.495,0.355-5.242,0.542c0.425,1.68,0.85,3.359,1.501,5.932
							c-2.569,5.011-9.298,2.605-14.89,4.575c2.828,2.198,4.998,3.884,7.154,5.561c-3.803,5.772-8.918,1.681-13.479,2.316
							c0.978-1.306,1.955-2.612,2.638-3.522c-4.82,1.181-10.104,1.66-14.617,3.779c-6.282,2.948-12.031,7.055-17.922,10.801
							c-3.626,2.306-1.642,5.719-0.938,8.496c0.265,1.043,2.729,1.544,4.205,2.262c3.236,1.574,6.395,3.366,9.756,4.605
							c2.128,0.784,4.562,0.731,7.229,1.105c-1.432,3.224-2.786,6.273-4.222,9.504c0.759,1.287,1.774,3.009,3.489,5.919
							c2.353-4.021,4.735-7.117,6.022-10.616c0.952-2.589,2.24-3.81,4.686-4.676c2.367-0.839,4.716-2.031,6.709-3.547
							c2.048-1.559,3.672-3.633,1.6-6.517c-0.335-0.467-0.062-2.049,0.379-2.289c3.808-2.066,4.864-6.241,7.439-9.19
							c0.998-1.143,3.274-1.309,5.021-1.612c1.41-0.245,2.988,0.287,4.337-0.085c2.536-0.701,4.077-0.528,5.339,2.278
							c0.61,1.356,3.029,1.899,4.854,2.938c-2.117,2.263-5.255,4.961,0.207,8.169c3.484-2.165,7.172-4.455,11.403-7.083
							c-0.503,4.761,4.588,8.378,1.104,13.203c-0.383,0.53,0.376,2.575,1.162,3.138c3.089,2.207,6.401,4.101,9.63,6.112
							c0.087,0.631,0.174,1.263,0.261,1.894c-3.899,2.748-7.799,5.495-11.69,8.236c0.278,0.624,0.428,1.365,0.646,1.386
							c5.755,0.555,4.255,5.263,4.806,8.642c0.121,0.748-1.055,1.853-1.857,2.525c-0.276,0.232-1.717-0.228-1.806-0.578
							c-0.786-3.115-3.481-2.509-5.551-2.87c-2.124-0.37-4.321-0.327-6.486-0.465c-0.218-0.411-0.436-0.823-0.653-1.234
							c1.7-2.056,3.401-4.111,5.104-6.165c-4.928-1.804-6.783-1.271-11.296,2.523c-0.594,0.499-2.713,0.036-3.467-0.677
							c-1.909-1.806-3.454-1.542-5.565-0.365c-3.675,2.049-7.549,3.743-10.91,6.492c2.826-1.204,5.618-2.5,8.493-3.573
							c1.381-0.515,2.948-0.927,4.376-0.794c1.282,0.12,3.285,0.825,3.526,1.68c0.306,1.08-0.853,2.573-1.379,3.888
							c-0.417-0.54-0.835-1.08-1.252-1.621c0.188,1.355,0.376,2.71,0.43,3.103c1.926,1.27,3.436,2.264,4.944,3.259
							c-0.074,0.604-0.148,1.208-0.223,1.811c2.035-1.216,4.07-2.431,6.867-4.102c-0.407,1.567-0.391,3.286-0.993,3.542
							c-5.759,2.438-11.623,4.629-17.457,6.891c-0.271-0.399-0.543-0.799-0.814-1.199c2.133-1.641,4.265-3.282,7.446-5.73
							c-2.73,0.197-4.659-0.125-6.164,0.529c-4.994,2.171-9.985,4.445-14.646,7.234c-1.4,0.838-1.718,3.486-2.821,5.953
							c-2.263,0.491-6.068,0.708-9.283,2.198c-2.85,1.322-5.044,4.06-8.014,5.392c-0.774,2.058-1.549,4.116-2.323,6.174
							c-0.274-0.063-0.549-0.127-0.823-0.19c-0.17-1.379-0.341-2.758-0.511-4.137c-0.211-0.022-0.423-0.044-0.634-0.066
							c-0.352,1.26-1.136,2.575-0.983,3.771c0.968,7.587-4.541,9.847-9.751,12.801c-4.155,2.355-8.125,5.251-11.606,8.517
							c-3.297,3.093-2.52,7.466-1.638,11.472c0.951,4.322,0.417,8.218-3.462,13.056c-1.321-5.104-2.885-9.035-3.208-13.064
							c-0.26-3.242-1.693-4.663-4.335-5.341c-2.869-0.736-5.851-1.025-8.725-1.743c-5.876-1.468-6.392-1.209-7.289,4.726
							c-0.808-0.005-1.808,0.283-2.491-0.06c-6.845-3.439-13.261-1.404-19.359,1.795c-2.061,1.082-4.097,3.256-4.933,5.403
							c-1.671,4.29-3.105,8.854-3.494,13.403c-0.312,3.649,1.009,7.452,1.715,11.166c0.271,1.422,0.847,2.786,1.091,3.562
							c1.689,0.574,3.135,1.06,4.572,1.57c0.098,0.035,0.091,0.321,0.196,0.383c3.486,2.063,13.047-3.392,13.476-7.467
							c0.107-1.019,1.42-2.539,2.393-2.728c3.586-0.696,7.262-0.931,10.849-1.332c-3.5,6.688-7.001,13.378-10.737,20.518
							c2.88,0.245,6.447,1.658,8.706,0.507c4.577-2.333,6.885,0.343,9.335,2.234c-1.077,4.609-2.54,8.922-2.997,13.339
							c-0.529,5.115,5.815,9.232,10.489,7.243C686.188,515.228,686.86,515.41,691.259,521.3z"/>
						<path fill="#D6E882" d="M1334.146,681.9c-2.799,4.62-6.3,1.526-9.012,0.397c-1.479-0.615-2.038-3.855-2.651-6.015
							c-0.607-2.141-0.812-4.403-1.099-6.625c-0.201-1.546-0.243-3.111-0.363-4.769c-2.03,1.618-4.38,3.491-7.082,5.646
							c-0.312-1.277-0.619-2.089-0.696-2.922c-0.583-6.271-3.197-9.173-9.561-8.11c-7.803,1.303-16.224,1.237-22.788,6.976
							c-0.787,0.688-2.295,1.023-3.356,0.846c-5.376-0.896-9.983,1.199-14.451,3.598c-3.215,1.726-5.182-0.098-6.99-2.094
							c-0.515-0.569-0.379-2.758,0.146-3.078c4.816-2.941,3.917-7.679,4.062-12.08c0.044-1.343-0.26-2.694-0.262-4.042
							c-0.007-5.599,0.184-11.202,0.028-16.796c-0.146-5.277,9.024-10.289,13.954-11.681c2.838-0.801,6.222-0.513,8.568-1.98
							c2.686-1.681,4.658-4.642,6.626-7.28c1.407-1.887,1.557-5.756,5.226-2.03c2.343-2.841,4.319-5.714,6.779-8.086
							c2.507-2.419,5.314-4.718,8.642-0.565c1.581,1.973,3.861,1.541,4.393-0.978c1.146-5.443,5.871-7.229,9.576-10.04
							c0.584-0.443,1.974,0.145,2.984,0.299c3.312,0.508,6.62,1.036,10.852,1.701c-0.788,1.335-1.577,2.84-2.522,4.24
							c-3.957,5.863-3.876,6.26,2.078,9.744c0.896,0.524,1.838,1.121,2.478,1.912c4.099,5.065,6.959,3.307,8.896-2.099
							c1.888-5.266,3.179-10.745,4.781-16.116c0.198-0.662,0.704-1.233,1.714-2.935c0.645,2.657,1.16,4.257,1.402,5.896
							c0.466,3.16,0.271,6.181,3.828,8.4c1.528,0.954,1.549,4.918,1.591,7.525c0.07,4.321-0.146,8.521,4.794,10.575
							c0.449,0.187,0.724,0.896,0.989,1.408c2.347,4.532,4.804,9.013,6.942,13.642c0.908,1.966,1.802,4.326,1.559,6.371
							c-1.107,9.312-4.174,17.523-12.263,23.524c-4.371,3.242-7.45,8.174-11.434,12.008c-2.244,2.16-5.097,3.714-7.771,5.389
							c-1.116,0.699-2.707,0.729-3.688,1.539C1338.295,685.492,1336.19,684.866,1334.146,681.9z"/>
						<path fill="#D6E882" d="M820.779,313.744c-2.295,0.372-4.59,0.744-6.885,1.116c-0.179-0.569-0.356-1.138-0.535-1.707
							c2.119-1.198,4.237-2.396,6.772-3.831c-1.744-0.222-3.4-0.433-5.246-0.668c0.896-1.784,2.363-3.341,2.326-4.861
							c-0.167-6.73-2.007-8.29-8.962-8.108c-2.5,0.065-5.009,0.774-7.48,0.626c-1.92-0.115-3.788-1.104-5.679-1.705
							c0.117-0.417,0.234-0.835,0.352-1.252c2.76-0.354,5.521-0.709,8.28-1.063c0-0.265,0.001-0.53,0.002-0.795
							c-3.132-0.019-6.264-0.037-9.396-0.055c-0.016-0.378-0.031-0.755-0.047-1.133c6.15-0.98,12.302-1.96,18.553-2.957
							c-0.537-0.973-0.97-1.756-1.479-2.677c-5.19,0.98-11.517,1.097-16.812,3.492c-4.863,2.2-11.084,1.348-14.84,6.46
							c-0.811,1.104-3.691,0.952-5.612,0.926c-6.14-0.083-12.275-0.429-18.415-0.54c-0.928-0.017-1.868,0.679-2.75,2.183
							c6.498-0.248,12.996-0.496,19.494-0.744c0.031,0.753,0.063,1.506,0.095,2.259c-8.291,3.248-16.901,0.507-26.153,0.869
							c1.04-1.656,1.645-2.617,2.324-3.698c-2.282-0.422-4.313-0.797-6.346-1.173c0.034-0.616,0.069-1.232,0.104-1.849
							c8.003,1.085,16.178,3.404,23.955-2.866c-5.068,0.117-10.629,3.445-12.56-3.887c5.653-3.77,11.671-3.636,17.986-0.384
							c0.014-0.469,0.028-0.938,0.042-1.407c-0.802-0.512-1.604-1.025-3.232-2.066c19.138-1.285,37.396-4.615,56.649-1.239
							c-1.532,0.609-2.382,1.015-3.274,1.281c-0.809,0.241-1.663,0.328-2.295,1.451c1.685-0.366,3.353-0.9,5.057-1.066
							c4.289-0.417,8.591-0.749,12.894-0.964c5.069-0.252,10.195,0.05,15.209-0.583c13.486-1.705,26.93-3.944,40.54-1.544
							c1.472,0.259,2.75,1.614,4.119,2.46c-0.208,0.5-0.416,1.001-0.623,1.501c5.431,0.032,10.862,0.064,15.961,0.094
							c-6.024,2.203-12.128,4.435-18.361,6.714c1.938,2.079,3.155,3.382,4.371,4.686c-1.812-0.011-3.624-0.021-5.246-0.031
							c0.289,1.267,0.973,2.792,0.906,4.283c-0.132,2.975-2.916,3.785-4.914,5.179c-1.848,1.289-5.13,1.67-2.833,5.417
							c0.218,0.355-2.723,3.551-4.594,4.118c-6.498,1.97-13.185,3.314-19.769,5.013c-1.526,0.394-2.899,1.342-4.4,1.875
							c-4.332,1.539-8.681,3.037-13.049,4.47c-2.939,0.965-6.101,1.42-7.647,4.73c-0.436,0.934-1.508,1.56-2.247,2.366
							c-2.677,2.921-5.572,5.683-7.933,8.842c-2.115,2.83-3.869,3.446-6.315,0.599c-0.482-0.561-1.378-1.223-1.991-1.142
							c-3.919,0.521-5.436-2.018-6.016-5.032c-0.864-4.49-1.674-9.084-1.623-13.625c0.033-2.994,1.953-5.365,5.763-5.441
							c1.554-0.031,3.081-1.337,4.621-2.062C821.322,314.315,821.051,314.03,820.779,313.744z"/>
						<path fill="#D6E882" d="M1334.821,563.594c1.409-1.978,1.991-2.745,2.521-3.547c2.765-4.181,5.21-4.724,9.641-2.677
							c4.152,1.918,8.543,3.318,12.688,5.248c2.253,1.048,4.38,2.53,6.265,4.162c2.256,1.953,4.192,4.274,6.44,6.616
							c-0.711,0.354-1.688,0.842-3.218,1.605c3.476,3.998,6.825,7.852,10.756,12.373c-5.743-0.939-10.429-1.489-13.034-6.887
							c-0.793-1.643-3.404-2.867-5.408-3.355c-2.819-0.688-2.453,2.152-3.505,3.642c-0.972,1.376-5.486,2.181-6.548,1.197
							c-3.121-2.896-6.25-3.635-10.33-2.028c-0.062-0.418-0.125-0.837-0.188-1.256c1.324-0.953,2.648-1.907,3.975-2.855
							c-0.71-6.516-1.799-7.712-8.377-9.714c-2.332-0.709-4.577-1.702-7.15-2.675c-0.054,0.116-0.38,0.822-0.891,1.931
							c-0.813-1.769-1.5-3.262-2.276-4.95c1.442-0.479,2.94-0.978,5.693-1.894c-2.738-0.371-4.48-0.233-5.833-0.893
							c-1.481-0.722-2.604-2.181-3.846-3.285c2.255-1.505,4.52-4.397,7.752-1.229c0.87,0.852,1.746,1.83,2.222,2.924
							C1333.082,558.142,1333.709,560.361,1334.821,563.594z"/>
						<path fill="#D6E882" d="M1260.012,544.499c2.796-2.164,4.868-3.52,6.643-5.19c4.22-3.976,8.299-8.1,12.758-12.482
							c1.612,1.422,3.951,3.483,6.298,5.552c-5.346,3.997-5.35,6.774,0.184,14.86c-1.422-0.008-2.69-0.016-3.886-0.022
							c-1.822,5.277-3.594,10.408-5.503,15.938c-0.632,0.148-2.214,0.52-3.626,0.851c-3.331-5.305-9.865-0.22-13.659-5.418
							c-0.876-1.927-2.607-4.854-3.495-8.02c-0.545-1.943,0.202-4.249,0.368-6.393
							C1257.755,544.312,1259.416,544.449,1260.012,544.499z"/>
						<path fill="#D6E882" d="M1073.246,592.136c0.755,3.693,3.147,8.138,1.878,10.901c-1.862,4.057-2.698,8.306-4.216,12.376
							c-1.986,5.332-4.051,10.701-5.27,16.233c-0.884,4.015-3.521,5.668-6.662,5.939c-1.646,0.142-4.696-2.037-5.059-3.633
							c-1.003-4.421-2.683-9.069,1.213-13.485c1.306-1.479,1.142-4.758,0.795-7.087c-0.749-5.039,0.455-7.638,5.312-9.085
							C1067.284,602.495,1068.835,596.819,1073.246,592.136z"/>
						<path fill="#D6E882" d="M711.236,312.244c-1.06,0.93-2.007,2.217-3.272,2.751c-1.448,0.612-3.353,1.119-4.757,0.688
							c-4.764-1.463-9.394-0.769-13.945,0.453c-4.854,1.302-8.8-0.103-12.993-3.81c4.536-0.222,8.616-0.421,12.695-0.621
							c0.043-0.348,0.086-0.695,0.13-1.043c-3.18-0.423-6.359-0.847-10.291-1.371c1.982-0.403,3.377-0.687,4.773-0.97
							c-0.034-0.416-0.067-0.832-0.1-1.247c-4.797,0.362-9.594,0.725-15.386,1.162c-0.046-0.052-0.963-1.09-1.835-2.076
							c3.859-2.081,7.569-4.968,11.757-6.121c5.598-1.542,11.188-0.707,16.298,3.039c2.444,1.791,5.704,4.517,9.376,0.045
							c0.311,1.862,0.453,2.715,0.422,2.529c3.382-1.459,6.946-2.997,10.511-4.535c0.247,0.459,0.493,0.918,0.739,1.376
							c-1.88,1.469-4.465,2.595-5.402,4.522C709.287,308.387,710.836,310.838,711.236,312.244z"/>
						<path fill="#D6E882" d="M1240.438,570.159c-4.64-6.558-10.946-12.993-14.124-20.717c-2.718-6.605-7.42-10.405-11.935-14.944
							c-1.096-1.102-1.729-2.662-3-4.691c3.678,0.895,6.224,1.514,9.717,2.362c3.831,6.566,10.646,11.526,18.021,16.281
							c-0.318,0.761-0.863,2.065-0.906,2.169c2.959,4.159,6.372,7.301,7.466,11.109
							C1246.343,564.044,1246.992,569.272,1240.438,570.159z"/>
						<path fill="#D6E882" d="M933.203,372.703c-2.561,0.486-5.112,1.021-7.683,1.447c-3.635,0.603-7.283,1.125-12.067,1.856
							c3.098-1.88,5.354-3.25,7.402-4.493c-1.502-0.155-3.356-0.346-4.957-0.511c0.89-1.69,1.789-3.397,2.947-5.598
							c0.303-0.07,1.618-0.375,4.395-1.02c-2.648-2.111-4.209-3.355-6.022-4.8c0.068-0.122,0.599-1.073,1.696-3.041
							c-1.615,1.02-2.248,1.419-2.948,1.861c0.218-7.044-2.282-7.866,7.928-11.357c-1.167,1.619-2.058,2.853-3.203,4.441
							c1.832,0.011,3.263,0.019,5.407,0.032c-1.293,1.714-2.203,2.92-2.944,3.903c2.425,3.494,4.738,6.83,7.053,10.166
							c1.66,1.195,6.618,0.622,1.526,5.087c-0.061,0.053,0.955,1.333,1.468,2.039C933.2,372.714,933.203,372.703,933.203,372.703z"
							/>
						<path fill="#D6E882" d="M1314.649,430.626c-3.72,0.89-7.607,1.819-12.395,2.964c3.485-5.293,7.005-7.791,12.85-5.17
							c0.015-2.487,0.026-4.536,0.036-6.159c1.357-0.054,3.671,0.167,3.769-0.201c0.651-2.448,1.201-5.046,1.033-7.546
							c-0.12-1.799-1.403-3.521-2.466-5.964c7.396,2.197,8.891,4.289,8.812,10.102c-0.027,2.06,0.391,4.324,1.298,6.152
							c1.288,2.597,2.089,4.261-1.865,4.801c-2.063,0.282-4.015,1.396-6.823,2.432c-0.094,0.207-0.718,1.585-1.836,4.056
							C1316.029,433.754,1315.396,432.32,1314.649,430.626z"/>
						<path fill="#D6E882" d="M1391.748,696.67c-0.469,0.598-1.073,1.972-2.124,2.604c-4.401,2.646-8.989,4.979-13.394,7.621
							c-1.626,0.975-2.995,2.42-4.37,3.765c-4.261,4.169-8.041,4.691-14.151,0.965c5.392-2.841,10.186-5.343,14.957-7.887
							c3.992-2.129,7.976-4.276,11.93-6.473C1386.824,696.026,1388.245,691.321,1391.748,696.67z"/>
						<path fill="#D6E882" d="M1297.261,564.975c-1.265,0.669-2.515,1.33-4.031,2.133c-0.839-2.395-1.702-4.857-2.599-7.416
							c-3.561,2.604,2.173,8.391-4.084,10.287c3.866-4.57-4.372-7.554-0.693-12.592c2.589-3.546,1.049-9.519,6.262-10.882
							c3.931-0.272,7.861-0.545,11.67-0.809c-1.231,2.766-3.184,4.646-7.257,3.608c-2.171-0.555-4.594-0.123-7.528-0.141
							c0.617,2.359,1.084,4.146,1.479,5.655c2.882-1.134,5.661-2.228,8.44-3.32c0.177,0.392,0.353,0.783,0.529,1.175
							c-1.828,1.502-3.656,3.004-5.627,4.623C1294.915,559.738,1296.096,562.376,1297.261,564.975z"/>
						<path fill="#D6E882" d="M1058.045,313.552c-4.691-1.141-9.383-2.282-15.631-3.802c4.09-4.373,7.201-7.807,10.459-11.096
							c0.655-0.661,1.834-0.911,2.819-1.119c4.229-0.893,8.457-1.839,12.729-2.466c1.645-0.242,3.405,0.313,5.113,0.505
							c0.062,0.539,0.126,1.078,0.188,1.617c-4.106,0.718-8.505,0.753-12.237,2.347c-3.687,1.575-6.7,4.726-10.728,7.718
							c3.321,2.319,5.424,3.788,7.526,5.256C1058.205,312.858,1058.125,313.205,1058.045,313.552z"/>
						<path fill="#D6E882" d="M902.118,328.399c-5.586,1.795-10.024,3.929-14.657,4.502c-4.216,0.522-7.421-2.451-9.032-7.33
							c0.318-0.287,1.423-1.279,2.802-2.519c1.053,1.419,1.82,2.455,2.452,3.306c4.363-0.802,8.643-1.925,12.975-2.188
							C898.022,324.086,899.528,326.305,902.118,328.399z"/>
						<path fill="#D6E882" d="M1270.283,574.698c-1.45,0.313-2.9,0.627-4.307,0.932c-0.195,3.03,6.418-0.475,4.282,4.396
							c-2.534-0.358-5.075-0.591-7.558-1.108c-2.382-0.495-4.673-1.426-7.057-1.905c-2.238-0.451-4.546-0.565-6.824-0.823
							c-0.147-0.018-0.368,0.064-0.438-0.01c-1.264-1.33-2.51-2.678-3.759-4.021c2.008-0.367,4.111-1.293,6.002-0.97
							c2.81,0.479,5.414,2.419,8.207,2.685c3.684,0.352,7.466-0.316,11.205-0.546
							C1270.119,573.784,1270.201,574.241,1270.283,574.698z"/>
						<path fill="#D6E882" d="M720.366,297.801c-2.13,0.348-4.252,0.746-6.39,1.028c-2.052,0.27-4.133,0.335-6.178,0.644
							c-2.05,0.31-4.229,1.824-5.332-1.624c-0.221-0.69-2.393-0.919-3.698-1.065c-3.121-0.349-6.261-0.522-9.394-0.766
							c-0.014-0.408-0.028-0.816-0.042-1.224c5.431-1.093,10.862-2.186,16.292-3.278c0.092,0.218,0.185,0.436,0.276,0.654
							c-0.97,0.773-1.938,1.546-2.439,1.945c3.126,1.229,6.371,2.505,9.604,3.776C714.974,293.883,714.974,293.883,720.366,297.801z
							"/>
						<path fill="#D6E882" d="M902.008,370.073c0.971-1.097,1.94-2.194,2.679-3.029c-0.369-1.213-1.337-2.908-0.93-3.357
							c0.882-0.972,2.467-1.307,4.148-2.079c-0.055-0.222-0.226-0.907-0.457-1.837c1.577-0.341,3.148-0.948,4.724-0.959
							c2.498-0.018,4.055,0.604,2.107,3.657c-1.021,1.599-1.049,3.832-1.574,5.978c-3.202,0.974-6.561,1.995-9.919,3.016
							C902.526,370.999,902.268,370.536,902.008,370.073z"/>
						<path fill="#D6E882" d="M1298.621,505.707c-3.1-1.099-6.198-2.197-9.297-3.297c-5.987-3.748-2.604-10.158-3.766-15.827
							c6.926,0.425,8.122,2.68,4.938,8.727c-1.182,2.241,0.538,4.7,2.871,5.532c2.185,0.778,3.991,2.62,5.963,3.993
							C1299.094,505.126,1298.857,505.417,1298.621,505.707z"/>
						<path fill="#D6E882" d="M673.606,470.494c1.497-4.81,5.831-3.87,8.19-3.472c4.196,0.708,8.149,3.048,12.107,4.911
							c2.965,1.396,5.778,3.114,8.66,4.689c-0.061,0.378-0.12,0.756-0.181,1.134c-3.127,0.244-6.254,0.488-9.881,0.771
							c0.508-1.008,0.888-1.762,1.283-2.544C687.722,472.133,682.017,467.08,673.606,470.494z"/>
						<path fill="#D6E882" d="M1313.679,393.151c5.251,2.86,9.888,5.385,14.576,7.939c-1.521,1.637-2.635,2.835-4.093,4.403
							c-2.017-0.49-4.814-1.171-7.611-1.852c-0.103,0.234-0.205,0.467-0.309,0.701c0.843,0.703,1.685,1.405,2.693,2.246
							c-0.738,0.489-1.31,0.867-1.887,1.249c-1.473-2.422-3.964-4.261-0.797-7.369
							C1316.964,399.77,1314.781,396.121,1313.679,393.151z"/>
						<path fill="#D6E882" d="M1305.422,516.86c0.967,2.983,1.988,5.812,2.691,8.717c0.086,0.356-1.537,1.125-3.095,2.209
							c0.011,0.069,0.204,1.334,0.421,2.75c-5.052-1.101-5.36-1.473-5.31-6.678c-2.159,0.956-4.065,1.799-5.714,2.528
							c-0.353-3.183,1.684-4.774,5.675-4.914C1301.672,521.417,1303.167,518.906,1305.422,516.86z"/>
						<path fill="#D6E882" d="M1296.606,370.466c-0.463-1.268-0.926-2.535-1.389-3.802c0.19-0.141,0.381-0.282,0.571-0.422
							c4.482,4.374,8.965,8.746,13.442,13.124c0.212,0.208,0.592,0.574,0.538,0.676c-3.448,6.447,4.683,6.39,5.49,10.364
							c-0.851,0.237-2.016,0.562-2.464,0.687c-5.385-6.862-10.823-13.792-16.269-20.731
							C1296.522,370.353,1296.606,370.466,1296.606,370.466z"/>
						<path fill="#D6E882" d="M1339.754,692.837c-3.199,2.559-6.353,5.183-9.69,7.546c-0.244,0.173-2.683-1.612-2.613-2.346
							c0.23-2.422,1.144-4.779,1.671-6.709c3.624,0.021,6.741,0.04,9.857,0.059C1339.237,691.87,1339.496,692.354,1339.754,692.837z
							"/>
						<path fill="#D6E882" d="M730.269,301.09c-0.236,1.948-0.216,3.19-0.559,4.322c-0.8,2.642-7.263,3.804-9.233,1.795
							c-0.891-0.908-2.009-1.592-3.03-2.377c0.07-0.272,0.146-0.546,0.223-0.819C722.603,305.61,726.021,299.017,730.269,301.09z"/>
						<path fill="#D6E882" d="M1109.119,287.092c1.828-0.666,3.833-2.174,5.452-1.835c4.414,0.924,8.666,2.628,12.982,4.023
							c-0.179,0.609-0.356,1.218-0.535,1.827c-5.75-0.796-11.501-1.592-17.251-2.388
							C1109.551,288.176,1109.335,287.634,1109.119,287.092z"/>
						<path fill="#D6E882" d="M705.798,478.343c5.309-0.447,10.154,0.127,13.63,4.342c-3.186,0.915-6.143,2.533-9.014,2.391
							C706.979,484.907,706.712,481.171,705.798,478.343z"/>
						<path fill="#D6E882" d="M1165.012,518.055c2.314-1.241,4.037-1.303,5.241,1.663c2.813,6.925,2.917,6.883-2.984,9.917
							c-0.745-4.125-1.43-7.914-2.12-11.697C1165.143,517.942,1165.012,518.055,1165.012,518.055z"/>
						<path fill="#D6E882" d="M1213.147,298.421c6.158,0.52,11.792,0.996,18.317,1.547
							C1225.854,303.525,1216.529,302.666,1213.147,298.421z"/>
						<path fill="#D6E882" d="M738.729,295.055c-3.556,3.952-8.671,4.246-14.616-0.086
							C729.699,295.001,734.11,295.028,738.729,295.055z"/>
						<path fill="#D6E882" d="M1256.318,481.351c-1.409,1.896,0.894,6.134-3.811,5.8c-0.996-0.071-1.875-1.78-2.807-2.734
							c1.739-1.506,3.479-3.012,5.219-4.518C1255.387,480.383,1255.853,480.867,1256.318,481.351z"/>
						<path fill="#D6E882" d="M1386.277,566.489c-0.091,3.271-3.016,4.838-5.718,5.787c-1.611,0.565-3.841-0.63-6.944-1.273
							C1378.765,569.168,1382.445,567.855,1386.277,566.489z"/>
						<path fill="#D6E882" d="M1304.906,444.243c-0.44-1.362-0.932-2.711-1.303-4.092c-0.23-0.854-0.185-1.784-0.434-2.629
							c-0.349-1.187-0.855-2.327-1.295-3.487c1.731,1.065,3.863,1.81,5.057,3.304c0.827,1.037,0.362,3.105,0.475,4.713
							C1306.573,442.782,1305.739,443.512,1304.906,444.243z"/>
						<path fill="#D6E882" d="M1285.062,463.634c-0.021,3.603-0.04,6.912-0.064,10.943
							C1281.095,468.926,1281.215,465.8,1285.062,463.634z"/>
						<path fill="#D6E882" d="M1309.304,579.418c-3.913,2.418-7.403,4.574-11.534,7.126
							C1299.798,580.898,1302.594,579.261,1309.304,579.418z"/>
						<path fill="#D6E882" d="M743.036,288.769c-0.884,1.86-0.884,1.86-9.586,1.243
							C735.056,286.795,735.056,286.795,743.036,288.769z"/>
						<path fill="#D6E882" d="M1301.678,578.35c-4.172,2.757-11.574,3.414-14.778,1.117
							C1291.997,579.081,1296.682,578.727,1301.678,578.35z"/>
						<path fill="#D6E882" d="M1395.001,624.736c2.527,2.084,5.295,4.365,8.062,6.646
							C1397.193,631.333,1395.13,629.083,1395.001,624.736z"/>
						<path fill="#D6E882" d="M1139.936,292.224c-3.019,0.312-6.036,0.625-9.062,0.938
							C1130.584,288.994,1132.739,288.651,1139.936,292.224z"/>
						<path fill="#D6E882" d="M1275.111,579.684c3.135-0.3,6.269-0.6,9.402-0.9c0.066,0.523,0.133,1.047,0.199,1.569
							c-3.065,0.464-6.13,0.928-9.195,1.392C1275.383,581.058,1275.247,580.371,1275.111,579.684z"/>
						<path fill="#D6E882" d="M649.17,551.615c-1.432-0.996-2.864-1.991-4.296-2.987c0.57-0.697,1.499-2.07,1.653-1.988
							c1.533,0.816,2.937,1.873,4.378,2.862C650.327,550.206,649.749,550.911,649.17,551.615z"/>
						<path fill="#D6E882" d="M950.006,414.206c1.17-2.912-2.321-6.913,3.537-7.569C953.76,409.63,955.972,413.028,950.006,414.206z
							"/>
					</g>
				</g>
			</g>
		</g>
		<g>
			<path fill="#5C8A80" d="M862.546,515.895l79.883-87.526c9.121-9.994,8.414-25.491-1.58-34.612l0,0
				c-9.994-9.122-25.491-8.414-34.612,1.58l-79.883,87.527L862.546,515.895z"/>
		</g>
		<path fill="#EE7071" d="M804.617,482.428c-2.992,0.458-5.979,0.919-8.952,1.252c-0.085,3.889,3.032,7.236,6.588,8.815
			c3.555,1.58,7.532,1.815,11.384,2.356c0.7,0.099,1.449,0.232,1.947,0.733c0.528,0.532,0.64,1.35,0.612,2.099
			c-0.148,4.083-3.396,7.33-6.646,9.806c-4.688,3.57-9.86,6.505-15.331,8.698c-2.621,1.051-5.547,2.129-6.877,4.62
			c-2.255,4.225,1.573,9.159,5.554,11.821c10.999,7.358,25.64,8.514,37.899,3.775c6.022-2.328,10.667-6.777,16.378-9.365
			c6.495-2.942,10.515-7.136,15.312-12.863c1.743-2.08,3.548-4.607,2.982-7.262c-0.236-1.109-0.869-2.086-1.49-3.034
			c-3.054-4.665-6.152-9.383-10.268-13.146c-4.888-4.468-11.271-6.628-17.723-7.563c-6.122-0.887-12.059-2.691-18.312-2.326
			C813.337,481.099,808.973,481.761,804.617,482.428z"/>
		<path fill="none" stroke="#000000" stroke-miterlimit="10" d="M790.687,291.892c2.449,0.827,5.312,0.284,7.29-1.382
			c1.977-1.665,2.998-4.395,2.599-6.949"/>
		<path fill="none" stroke="#FFFFFF" stroke-miterlimit="10" d="M889.478,413.25c6.455-6.549,12.91-13.098,19.365-19.646
			c2.659-2.698,5.631-5.553,9.396-5.965"/>
		<path fill="none" stroke="#FFFFFF" stroke-miterlimit="10" d="M902.188,400.553c10.544-7.75,26.172-7.673,36.64,0.178"/>
		<path fill="none" stroke="#FFFFFF" stroke-miterlimit="10" d="M887.692,329.041c1.763,25.265,5.572,50.386,11.381,75.037"/>
		<path fill="none" stroke="#FFFFFF" stroke-miterlimit="10" d="M892.98,378.921"/>
		<path fill="none" stroke="#FFFFFF" stroke-miterlimit="10" d="M872.848,337.398c3.772,14.885,10.691,28.966,20.169,41.047"/>
		<path fill="none" stroke="#000000" stroke-miterlimit="10" d="M785.223,279.443c-0.465,1.594-2.033,2.67-2.54,4.251
			c-0.46,1.438,0.141,3.147,1.399,3.981s3.066,0.721,4.211-0.264"/>
		<path fill="none" stroke="#912A2A" stroke-miterlimit="10" d="M786.394,525.674c6.288,1.854,13.165,0.599,19.131-2.116
			c5.967-2.715,11.188-6.799,16.347-10.844"/>
		<path fill="none" stroke="#912A2A" stroke-miterlimit="10" d="M794.438,534.55c2.387,0.843,5.021,0.15,7.417-0.663
			c7.942-2.698,15.433-6.721,22.066-11.853"/>
		<path fill="none" stroke="#912A2A" stroke-miterlimit="10" d="M805.963,538.328c10.412-1.091,20.459-5.437,28.384-12.278"/>
	</g>
	<g>
		<path fill="#3C657C" d="M544.642,499.621l-58.759-40.853c-7.506-5.219-9.361-15.535-4.142-23.042l0,0
			c6.269-9.016,18.659-11.244,27.675-4.975l56.025,38.953c8.262,5.744,10.302,17.097,4.559,25.358l0,0
			C564.256,503.324,552.903,505.364,544.642,499.621z"/>
	</g>
	<g>
		<path fill="#3C657C" d="M646.979,469.05l-82.055,32.124c-9.37,3.668-19.938-0.954-23.606-10.324l0,0
			c-3.668-9.37,0.954-19.938,10.323-23.606l82.055-32.124L646.979,469.05z"/>
	</g>
	<path fill="#EE7071" d="M639.188,420.916c1.116-1.955,2.232-3.906,3.255-5.881c2.723,0.977,4.214,4.034,4.364,6.923
		c0.149,2.889-0.748,5.713-1.399,8.531c-0.118,0.512-0.225,1.068-0.01,1.547c0.229,0.509,0.766,0.804,1.294,0.984
		c2.874,0.986,5.993-0.404,8.578-2c3.729-2.303,7.145-5.111,10.125-8.324c1.428-1.54,2.957-3.283,5.041-3.542
		c3.533-0.439,5.938,3.533,6.726,7.006c2.176,9.598-0.924,20.069-7.482,27.316c-3.221,3.561-7.548,5.599-10.867,8.874
		c-3.774,3.725-7.756,5.397-13.011,7.2c-1.91,0.655-4.145,1.235-5.837,0.134c-0.707-0.459-1.216-1.159-1.708-1.843
		c-2.424-3.364-4.874-6.772-6.389-10.632c-1.799-4.583-1.597-9.591-0.526-14.319c1.016-4.486,1.346-9.088,3.267-13.332
		C635.941,426.614,637.563,423.761,639.188,420.916z"/>
	<path fill="none" stroke="#912A2A" stroke-miterlimit="10" d="M674.604,422.303c-3.127,8.258-9.999,14.542-17.313,19.489
		c-0.679,0.459-1.887,0.729-2.072-0.069"/>
	<path fill="none" stroke="#912A2A" stroke-miterlimit="10" d="M677.682,431.296c-1.529,5.894-6.412,10.262-11.32,13.865
		c-1.239,0.909-2.583,1.827-4.116,1.928"/>
	<circle fill="#EE7071" cx="511.997" cy="222.847" r="90.259"/>
	<path fill="none" stroke="#912A2A" stroke-miterlimit="10" d="M675.629,444.291c-1.341,2.998-4.028,5.229-6.982,6.664
		c-2.955,1.434-6.194,2.16-9.399,2.875"/>
	<path fill="#FCFBF5" d="M540.021,182.326L540.021,182.326c-14.028,0-25.67,8.278-27.958,30.776
		c-2.289-22.499-13.931-30.776-27.959-30.776l0,0c-10.482,0-18.979,14.293-18.979,31.924v2.845
		c0,26.359,30.654,57.113,46.522,57.517v0.009h0.316h0.198h0.316v-0.009C528.346,274.207,559,243.454,559,217.094v-2.845
		C559,196.619,550.503,182.326,540.021,182.326z"/>
</g>
</svg>
